<svg width="282" height="136" viewBox="0 0 282 136" fill="none" xmlns="http://www.w3.org/2000/svg">
<path d="M62.3962 26.1917C65.6325 23.8194 69.1483 23.0615 73.0728 22.0578C98.1776 15.6373 124.019 11.9247 149.683 8.64157C175.85 5.29409 202.304 2.21457 228.718 1.84127C242.767 1.6427 262.039 1.02353 275.31 7.39099C291.716 15.2628 263.872 38.768 258.472 42.9515C226.107 68.0217 188.773 83.9285 150.498 97.8475C124.97 107.131 99.0133 115.334 72.9752 123.058C56.4426 127.962 38.214 134.43 20.6588 134.048C6.75404 133.746 2.25486 124.928 1.88325 112.338C1.31275 93.0105 14.046 60.6937 34.8012 55.1264" stroke="#F1A003" stroke-width="3" stroke-linecap="round"/>
</svg>
